# xmcd
#
# Track frame offsets:
#	150
#	12599
#	24319
#	32976
#	45671
#	57415
#	70472
#	89006
#	101696
#	110402
#	124288
#	140585
#	152747
#	165683
#	175899
#	188546
#	200389
#	216359
#
# Disc length: 3042 seconds
#
# Revision: 0
# Processed by: cddbd v1.5.2PL0 Copyright (c) Steve Scherf et al.
# Submitted via: audiograbber 1.83.01
#
DISCID=090be012
DTITLE=Various Artist - Best Of Country Songs Disc  4
DYEAR=2011
DGENRE=Country
TTITLE0=Lynn Anderson - Stand By Your Man
TTITLE1=Jimmie Rodgers - A Good Women Like To Drink With The Boys
TTITLE2=Ricky Skaggs - A Few More Seasons
TTITLE3=Glen Campbell - By The Time I Get The Phoenix
TTITLE4=Delbert McClinton - These Boots Are Made For Walking
TTITLE5=Anne Murray - Path Of Victory
TTITLE6=The Mavericks - Pool Number One The Maverricks
TTITLE7=Johnny Cash - Folsom Prison Blues
TTITLE8=Waylon Jennings - Love's Gonna Live Here
TTITLE9=George Johns - A Good Year For The Roses
TTITLE10=Juice Newton and Randy Meisner - Heart Of Gold
TTITLE11=Billy Joe Spears - Look What They've Done To My Song
TTITLE12=Porter Wagoner - Satisfied Mind
TTITLE13=Patsy Cline - Three Cigarettes In A Ashtray
TTITLE14=Jerry Wallace - In The Misty Moonlight
TTITLE15=Troy Shondell - This Time
TTITLE16=Lucky - It Only Take A Little Woman
TTITLE17=Jimmy C.Newman - Dead Skunk ( In The Middle Of The Road)
EXTD=
EXTT0=
EXTT1=
EXTT2=
EXTT3=
EXTT4=
EXTT5=
EXTT6=
EXTT7=
EXTT8=
EXTT9=
EXTT10=
EXTT11=
EXTT12=
EXTT13=
EXTT14=
EXTT15=
EXTT16=
EXTT17=
PLAYORDER=
